<svg width="98" height="89" viewBox="0 0 98 89" fill="none" xmlns="http://www.w3.org/2000/svg">
<path d="M20.4493 52.3926V39.2613L24.2389 36.2154V5.46289H18.8095L0 21.2791L1.89478 24.6935C5.82285 24.2648 13.0741 22.3771 15.2969 21.5273V78.4446L1.89478 82.3328V88.4923H24.2389V55.4385L20.4566 52.4001L20.4493 52.3926Z" fill="white"/>
<path d="M48.0695 82.3253L34.784 78.4822V5.46289H26.2574V37.0201L22.4678 40.0585V51.5878L26.2574 54.6262V88.4848H48.0695V82.3253Z" fill="white"/>
<path d="M57.5645 13.7041C57.4551 12.3643 56.5801 11.5986 54.8027 11.5986C53.0801 11.5986 52.3145 12.2549 52.2871 13.1846C52.2598 14.1963 53.1895 14.7705 55.0215 15.1533L56.6621 15.5361C60.9277 16.4385 62.8145 18.5166 62.8418 21.5518C62.8145 25.4346 59.834 27.6221 54.8301 27.6221C49.7168 27.6221 46.4082 25.3799 46.3535 20.5127H51.3301C51.4121 22.3447 52.6973 23.3291 54.748 23.3291C56.5254 23.3291 57.4824 22.5908 57.5098 21.5518C57.4824 20.5947 56.6895 20.0479 54.4746 19.5557L52.4785 19.1182C49.0059 18.3525 46.873 16.6299 46.873 13.5674C46.8457 9.82129 50.1543 7.30566 54.8027 7.30566C59.5605 7.30566 62.541 9.84863 62.5684 13.7041H57.5645ZM63.5604 11.79V7.5791H80.6229V11.79H74.662V27.376H69.5213V11.79H63.5604Z" fill="white"/>
</svg>
