<svg width="200" height="44" viewBox="0 0 200 44" fill="none" xmlns="http://www.w3.org/2000/svg">
<path d="M0 25.0918C0 32.6728 5.65958 40.275 15.3298 40.275C25 40.275 24.5957 37.3738 24.5957 37.3738L22.8511 33.2763C22.8511 33.2763 6.07446 38.8138 6.07446 25.4941C6.07446 12.1744 16.4681 13.3073 21.2021 14.3343L23.2553 10.3427C23.2553 10.3427 1.12766 3.37574 0 25.0918Z" fill="white"/>
<path d="M57.3191 9.28406V39.587H63.4999V15.3722L75.6063 39.587H84.1914V9.28406H78.3616V33.4247L65.5957 9.28406H57.3191Z" fill="white"/>
<path d="M113.979 9.28406H90.5215V14.5039H98.447V39.587H104.883V14.5039H111.266L113.979 9.28406Z" fill="white"/>
<path d="M125.319 26.6696H136.149V21.2273H127.128L125.319 23.4085V14.4298H135.553L137.734 9.35817H125.319V9.28406H119.085V9.35817V14.4298V34.5153V36.4741V39.587H135.553L137.734 34.5153H125.319V26.6696Z" fill="white"/>
<path d="M37.4574 26.6696H48.2872V21.2273H39.2659L37.4574 23.4085V14.4298H47.6915L49.8723 9.35817H37.4574V9.28406H31.2234V9.35817V14.4298V34.5153V36.4741V39.587H47.6915L49.8723 34.5153H37.4574V26.6696Z" fill="white"/>
<path d="M163.5 34.515L158.468 26.521C161.521 25.6528 165.128 23.4823 165.128 18.1248C165.128 8.81789 156.138 9.28377 156.138 9.28377H145.074V39.5867H151.309V27.1034H152.511L160.234 39.5867H165.787L168.383 34.515H163.489H163.5ZM151.309 22.8788V14.4295H155.532C155.532 14.4295 160 14.3025 160 18.1883C160 22.0741 156.5 22.8682 155.66 22.8682H151.319L151.309 22.8788Z" fill="white"/>
<path d="M176.255 8.43979L183.787 1.7164H186.33V13.6703C186.33 13.6703 184.255 13.9032 184.255 17.4396C184.255 20.976 186.33 21.1136 186.33 21.1136V33.5969H176.808V32.0722L182.787 29.5523V7.53981L180.734 8.43979H176.255Z" fill="white"/>
<path d="M187.457 1.7164H190.542V29.5523L195.851 32.0722V33.5969H187.457V20.4889C187.457 20.4889 185.361 20.0231 185.361 17.3549C185.361 14.6867 186.34 14.4644 187.457 13.9667V1.7164Z" fill="white"/>
</svg>
