<svg width="654" height="273" viewBox="0 0 654 273" fill="none" xmlns="http://www.w3.org/2000/svg">
<path d="M618.899 273C611.603 273 604.835 271.8 598.595 269.4C592.355 267 586.931 263.496 582.323 258.888C577.811 254.28 574.259 248.568 571.667 241.752C569.075 234.936 567.779 227.064 567.779 218.136C567.779 209.4 569.123 201.576 571.811 194.664C574.499 187.752 578.147 181.896 582.755 177.096C587.363 172.296 592.739 168.648 598.883 166.152C605.123 163.656 611.795 162.408 618.899 162.408C626.579 162.408 633.107 163.8 638.483 166.584C643.955 169.368 648.419 172.536 651.875 176.088L640.499 189.624C637.907 187.128 634.979 185.016 631.715 183.288C628.547 181.56 624.515 180.696 619.619 180.696C615.203 180.696 611.123 181.56 607.379 183.288C603.731 184.92 600.563 187.32 597.875 190.488C595.283 193.656 593.219 197.496 591.683 202.008C590.243 206.52 589.523 211.656 589.523 217.416C589.523 229.032 592.163 238.152 597.443 244.776C602.723 251.304 610.595 254.568 621.059 254.568C623.651 254.568 626.147 254.232 628.547 253.56C630.947 252.888 632.915 251.88 634.451 250.536V229.512H615.587V212.088H653.459V260.184C649.811 263.736 645.011 266.76 639.059 269.256C633.107 271.752 626.387 273 618.899 273Z" fill="white"/>
<path d="M469.567 164.424H491.311L522.271 221.16L532.927 244.2H533.647C533.071 238.632 532.447 232.536 531.775 225.912C531.199 219.288 530.911 212.952 530.911 206.904V164.424H551.071V270.984H529.471L498.655 213.96L487.855 191.064H487.135C487.615 196.824 488.143 202.92 488.719 209.352C489.391 215.784 489.727 222.072 489.727 228.216V270.984H469.567V164.424Z" fill="white"/>
<path d="M426.356 164.424H447.668V270.984H426.356V164.424Z" fill="white"/>
<path d="M327.879 164.424H357.111C365.271 164.424 372.567 165.48 378.999 167.592C385.527 169.704 391.047 172.968 395.559 177.384C400.167 181.704 403.671 187.176 406.071 193.8C408.567 200.424 409.815 208.248 409.815 217.272C409.815 226.2 408.567 234.024 406.071 240.744C403.671 247.464 400.215 253.08 395.703 257.592C391.287 262.008 385.911 265.368 379.575 267.672C373.239 269.88 366.135 270.984 358.263 270.984H327.879V164.424ZM355.815 253.848C360.807 253.848 365.271 253.176 369.207 251.832C373.239 250.392 376.647 248.232 379.431 245.352C382.215 242.376 384.327 238.584 385.767 233.976C387.303 229.368 388.071 223.8 388.071 217.272C388.071 210.744 387.303 205.224 385.767 200.712C384.327 196.104 382.215 192.408 379.431 189.624C376.647 186.744 373.239 184.68 369.207 183.432C365.271 182.088 360.807 181.416 355.815 181.416H349.191V253.848H355.815Z" fill="white"/>
<path d="M249.09 164.424H270.402V253.128H313.602V270.984H249.09V164.424Z" fill="white"/>
<path d="M205.878 164.424H227.19V270.984H205.878V164.424Z" fill="white"/>
<path d="M143.376 273C136.848 273 131.04 272.088 125.952 270.264C120.864 268.344 116.496 265.368 112.848 261.336C109.296 257.304 106.56 252.12 104.64 245.784C102.816 239.448 101.904 231.864 101.904 223.032V164.424H123.216V224.904C123.216 230.472 123.648 235.176 124.512 239.016C125.472 242.76 126.816 245.784 128.544 248.088C130.272 250.392 132.384 252.072 134.88 253.128C137.376 254.088 140.208 254.568 143.376 254.568C146.544 254.568 149.376 254.088 151.872 253.128C154.464 252.072 156.672 250.392 158.496 248.088C160.32 245.784 161.712 242.76 162.672 239.016C163.632 235.176 164.112 230.472 164.112 224.904V164.424H184.56V223.032C184.56 231.864 183.648 239.448 181.824 245.784C180 252.12 177.312 257.304 173.76 261.336C170.208 265.368 165.888 268.344 160.8 270.264C155.712 272.088 149.904 273 143.376 273Z" fill="white"/>
<path d="M8.78418 164.424H44.0642C49.5362 164.424 54.6242 164.856 59.3282 165.72C64.0322 166.584 68.1122 168.024 71.5682 170.04C75.0242 172.056 77.7122 174.744 79.6322 178.104C81.6482 181.464 82.6562 185.64 82.6562 190.632C82.6562 193.128 82.3202 195.576 81.6482 197.976C80.9762 200.376 80.0162 202.632 78.7682 204.744C77.5202 206.76 75.9842 208.584 74.1602 210.216C72.4322 211.752 70.4162 212.904 68.1122 213.672V214.392C73.8722 215.736 78.6242 218.472 82.3682 222.6C86.2082 226.728 88.1282 232.392 88.1282 239.592C88.1282 244.968 87.0722 249.624 84.9602 253.56C82.8482 257.496 79.9202 260.76 76.1762 263.352C72.5282 265.944 68.1602 267.864 63.0722 269.112C58.0802 270.36 52.6562 270.984 46.8002 270.984H8.78418V164.424ZM42.4802 207.768C49.2962 207.768 54.2402 206.52 57.3122 204.024C60.3842 201.528 61.9202 198.12 61.9202 193.8C61.9202 189.096 60.3362 185.736 57.1682 183.72C54.0002 181.704 49.2002 180.696 42.7682 180.696H30.0962V207.768H42.4802ZM44.9282 254.568C52.2242 254.568 57.7922 253.272 61.6322 250.68C65.4722 247.992 67.3922 243.864 67.3922 238.296C67.3922 233.112 65.4722 229.368 61.6322 227.064C57.8882 224.76 52.3202 223.608 44.9282 223.608H30.0962V254.568H44.9282Z" fill="white"/>
<path d="M199.128 0.423828H264.504V18.1358H220.44V42.7598H257.88V60.6158H220.44V89.1278H266.088V106.984H199.128V0.423828Z" fill="white"/>
<path d="M94.4639 0.423828H115.776V42.3278H156.096V0.423828H177.264V106.984H156.096V60.9038H115.776V106.984H94.4639V0.423828Z" fill="white"/>
<path d="M29.952 18.1358H0V0.423828H81.504V18.1358H51.264V106.984H29.952V18.1358Z" fill="white"/>
<path d="M442.781 9.81117H428.221V1.20117H467.841V9.81117H453.141V53.0012H442.781V9.81117Z" fill="white"/>
<path d="M408.02 53.9807C404.52 53.9807 401.113 53.3274 397.8 52.0207C394.533 50.714 391.64 48.8474 389.12 46.4207L395.07 39.2807C396.937 41.0074 399.013 42.4074 401.3 43.4807C403.633 44.5074 405.943 45.0207 408.23 45.0207C410.937 45.0207 412.99 44.484 414.39 43.4107C415.79 42.3374 416.49 40.8907 416.49 39.0707C416.49 38.0907 416.303 37.274 415.93 36.6207C415.557 35.9674 415.02 35.384 414.32 34.8707C413.667 34.3574 412.85 33.8907 411.87 33.4707C410.937 33.0507 409.887 32.584 408.72 32.0707L401.79 29.1307C400.483 28.5707 399.2 27.894 397.94 27.1007C396.68 26.3074 395.56 25.3507 394.58 24.2307C393.6 23.064 392.807 21.7574 392.2 20.3107C391.593 18.8174 391.29 17.114 391.29 15.2007C391.29 13.1007 391.733 11.1407 392.62 9.3207C393.507 7.45404 394.743 5.86737 396.33 4.5607C397.917 3.20737 399.807 2.15737 402 1.4107C404.193 0.617369 406.597 0.220703 409.21 0.220703C412.243 0.220703 415.183 0.804036 418.03 1.9707C420.877 3.0907 423.35 4.72403 425.45 6.8707L420.2 13.3807C418.567 12.0274 416.863 10.9774 415.09 10.2307C413.317 9.48404 411.357 9.1107 409.21 9.1107C406.923 9.1107 405.103 9.6007 403.75 10.5807C402.397 11.514 401.72 12.844 401.72 14.5707C401.72 15.504 401.93 16.2974 402.35 16.9507C402.817 17.604 403.4 18.1874 404.1 18.7007C404.847 19.214 405.71 19.6807 406.69 20.1007C407.67 20.5207 408.72 20.9407 409.84 21.3607L416.63 24.2307C418.217 24.884 419.64 25.6307 420.9 26.4707C422.207 27.3107 423.303 28.2907 424.19 29.4107C425.123 30.5307 425.823 31.8374 426.29 33.3307C426.803 34.7774 427.06 36.434 427.06 38.3007C427.06 40.4007 426.617 42.4074 425.73 44.3207C424.89 46.234 423.653 47.914 422.02 49.3607C420.387 50.7607 418.38 51.8807 416 52.7207C413.667 53.5607 411.007 53.9807 408.02 53.9807Z" fill="white"/>
<path d="M352.852 59.913V43.1489L357.828 39.2603V0H350.699L326 20.1918L328.488 24.5509C333.646 24.0036 343.167 21.5937 346.086 20.5087V93.1725L328.488 98.1364V106H357.828V63.8016L352.861 59.9226L352.852 59.913Z" fill="white"/>
<path d="M389.12 98.1268L371.675 93.2205V0H360.479V40.2877L355.502 44.1667V58.8857L360.479 62.7647V105.99H389.12V98.1268Z" fill="white"/>
</svg>
