<svg width="300" height="30" viewBox="0 0 300 30" fill="none" xmlns="http://www.w3.org/2000/svg">
<path d="M29.3252 12.0576H24.9902V26.9213H29.3252V12.0576Z" fill="white"/>
<path d="M29.3252 6.4375H24.9902V9.93989H29.3252V6.4375Z" fill="white"/>
<path d="M17.3684 6.4375H15.9402L10.8445 20.5763L5.78469 6.4375H4.33493H0V26.9208H4.33493V13.5715L9.50239 26.9208H12.2584L17.3684 13.5858V26.9208H21.6962V6.4375H17.3684Z" fill="white"/>
<path d="M36.5166 14.634V12.0862H32.1816V26.9498H36.5166V18.3446C36.5166 18.3446 36.6529 15.0862 41.4974 15.4163V12.0575C41.4974 12.0575 37.7223 11.9355 36.5166 14.634Z" fill="white"/>
<path d="M50.1744 12.0859C43.8442 12.0859 43.6146 15.696 43.6146 17.0094H47.1744C47.1744 17.0094 47.1241 14.6123 50.0524 14.6123C52.9806 14.6123 52.9017 16.3276 52.9017 16.5285C52.9017 16.7295 52.8514 18.0716 48.9687 18.4591C45.0859 18.8467 42.9399 19.9591 42.9399 22.9089C42.9399 25.8587 45.2366 26.9209 48.2151 26.9209C51.1935 26.9209 52.9088 25.1051 52.9088 25.1051V26.9209H56.5404V15.7175C56.5404 15.7175 56.5117 12.0859 50.1816 12.0859H50.1744ZM52.7151 20.928C52.7151 21.6816 52.5356 22.4424 52.1409 23.0812C51.6887 23.8132 50.9136 24.6386 49.5285 24.8611C48.3945 25.0405 47.7485 24.6457 47.3825 24.1577C46.7725 23.3467 46.8801 22.184 47.5835 21.4663C48.294 20.7414 49.7509 19.9807 52.7222 19.9161V20.9209L52.7151 20.928Z" fill="white"/>
<path d="M66.6888 24.2079C64.2773 24.2079 62.8993 22.83 62.8993 20.5907H73.7007C73.7007 20.5907 73.5715 12.0859 66.3873 12.0859C59.2031 12.0859 59.2031 19.2989 59.2031 20.4185C59.2031 21.5381 60.1936 27.3874 66.4519 27.3874C72.7103 27.3874 73.7007 22.141 73.7007 22.141H69.5668C69.5668 22.141 69.0931 24.2079 66.6816 24.2079H66.6888ZM66.2582 14.9137C69.6601 14.9137 69.6601 18.4591 69.6601 18.4591H62.8634C62.8634 18.4591 62.8634 14.9137 66.2653 14.9137H66.2582Z" fill="white"/>
<path d="M140.332 24.2079C137.921 24.2079 136.543 22.83 136.543 20.5907H147.344C147.344 20.5907 147.215 12.0859 140.031 12.0859C132.847 12.0859 132.847 19.2989 132.847 20.4185C132.847 21.5381 133.837 27.3874 140.095 27.3874C146.354 27.3874 147.344 22.141 147.344 22.141H143.21C143.21 22.141 142.737 24.2079 140.325 24.2079H140.332ZM139.902 14.9137C143.304 14.9137 143.304 18.4591 143.304 18.4591H136.507C136.507 18.4591 136.507 14.9137 139.909 14.9137H139.902Z" fill="white"/>
<path d="M93.8399 6.48047H90.0935L82.1772 26.9278H86.3112L88.0768 21.9757H95.5193L97.1988 26.9278H101.849L93.8471 6.48047H93.8399ZM89.0959 19.1192L91.816 11.5546L94.5002 19.112L89.0959 19.1264V19.1192Z" fill="white"/>
<path d="M102.474 21.9612H106.263C106.263 21.9612 106.263 24.8608 109.392 24.8608C112.521 24.8608 112.163 22.8871 112.163 22.521C112.163 22.155 111.108 21.2005 109.098 20.8057C107.088 20.411 102.84 19.4206 102.84 16.356C102.84 13.2914 105.28 12.0713 109.069 12.0713C112.859 12.0713 115.694 14.4469 115.694 16.1909H111.474C111.474 16.1909 111.208 14.4469 109.084 14.4469C106.959 14.4469 106.895 15.667 106.895 16.1622C106.895 16.6574 107.225 17.8129 112.299 18.466C117.373 19.1191 117.208 26.9206 109.923 26.9206C102.639 26.9206 102.474 21.9612 102.474 21.9612Z" fill="white"/>
<path d="M117.61 21.9612H121.399C121.399 21.9612 121.399 24.8608 124.529 24.8608C127.658 24.8608 127.299 22.8871 127.299 22.521C127.299 22.155 126.244 21.2005 124.234 20.8057C122.225 20.411 117.976 19.4206 117.976 16.356C117.976 13.2914 120.416 12.0713 124.206 12.0713C127.995 12.0713 130.83 14.4469 130.83 16.1909H126.61C126.61 16.1909 126.344 14.4469 124.22 14.4469C122.096 14.4469 122.031 15.667 122.031 16.1622C122.031 16.6574 122.361 17.8129 127.435 18.466C132.509 19.1191 132.344 26.9206 125.06 26.9206C117.775 26.9206 117.61 21.9612 117.61 21.9612Z" fill="white"/>
<path d="M157.816 15.2157V12.3664H155.017V7.78027H150.682V12.3592H148.256V15.2085H150.682V22.6439C150.682 22.6439 150.179 26.9214 153.452 26.9214H157.816V23.8855C157.816 23.8855 155.017 24.4812 155.017 22.6511V15.2157H157.816Z" fill="white"/>
<path d="M167.742 17.096C167.742 22.2347 171.56 27.3879 178.084 27.3879C184.608 27.3879 184.335 25.4214 184.335 25.4214L183.158 22.6438C183.158 22.6438 171.84 26.3974 171.84 17.3687C171.84 8.34001 178.852 9.10796 182.046 9.80413L183.431 7.09839C183.431 7.09839 168.502 2.3759 167.742 17.096Z" fill="white"/>
<path d="M206.412 6.38086V26.9215H210.581V10.5077L218.749 26.9215H224.541V6.38086H220.608V22.7445L211.995 6.38086H206.412Z" fill="white"/>
<path d="M244.636 6.38086H228.811V9.91914H234.158V26.9215H238.5V9.91914H242.806L244.636 6.38086Z" fill="white"/>
<path d="M252.287 18.1655H259.594V14.4766H253.507L252.287 15.955V9.8689H259.192L260.663 6.4311H252.287V6.38086H248.082V6.4311V9.8689V23.4837V24.8115V26.9215H259.192L260.663 23.4837H252.287V18.1655Z" fill="white"/>
<path d="M193.012 18.1655H200.318V14.4766H194.232L193.012 15.955V9.8689H199.916L201.387 6.4311H193.012V6.38086H188.806V6.4311V9.8689V23.4837V24.8115V26.9215H199.916L201.387 23.4837H193.012V18.1655Z" fill="white"/>
<path d="M278.045 23.4834L274.651 18.0648C276.71 17.4762 279.143 16.0049 279.143 12.3734C279.143 6.06476 273.079 6.38054 273.079 6.38054H265.615V26.9212H269.82V18.4595H270.631L275.842 26.9212H279.588L281.34 23.4834H278.038H278.045ZM269.82 15.5959V9.86858H272.67C272.67 9.86858 275.684 9.78246 275.684 12.4164C275.684 15.0504 273.323 15.5887 272.756 15.5887H269.828L269.82 15.5959Z" fill="white"/>
<path d="M286.65 5.84453L291.732 1.28711H293.447V9.38998C293.447 9.38998 292.048 9.54788 292.048 11.945C292.048 14.3421 293.447 14.4354 293.447 14.4354V22.8972H287.024V21.8637L291.057 20.1555V5.23448L289.672 5.84453H286.65Z" fill="white"/>
<path d="M294.208 1.28711H296.289V20.1555L299.871 21.8637V22.8972H294.208V14.012C294.208 14.012 292.794 13.6962 292.794 11.8876C292.794 10.079 293.454 9.92826 294.208 9.59094V1.28711Z" fill="white"/>
</svg>
